#!OML:ASF F:\VICON\USERDATA\INSTALL\rory3\rory3.ASF
:FULLY-SPECIFIED
:DEGREES
506
root -0.550434 16.2972 -5.24923 355.196 -25.2394 -358.83
lowerback 17.7302 1.76904 -2.74045
upperback 8.65268 1.73912 -0.219599
thorax -0.747397 0.733071 1.00609
lowerneck -4.0907 0.744084 -4.55961
upperneck 28.6675 0.111257 5.05339
head 9.67751 0.0102611 2.5601
rclavicle 2.73329e-014 6.4605e-016
rhumerus -13.878 32.7132 -74.2474
rradius 62.3186
rwrist 21.939
rhand -24.3027 3.42754
rfingers 7.12502
rthumb 2.18505 -26.541
lclavicle 2.73329e-014 6.4605e-016
lhumerus -7.99539 -41.3218 78.323
lradius 62.6129
lwrist -14.4966
lhand -0.197753 31.1139
lfingers 7.12502
lthumb 25.4009 59.4418
rfemur -39.9882 -6.45603 8.62985
rtibia 67.557
rfoot -18.12 -7.02308
rtoes -3.65735
lfemur -39.0965 10.3123 -11.0409
ltibia 59.5271
lfoot -8.26082 -16.9286
ltoes 6.86432
507
root -0.542658 16.2843 -5.27212 354.8 -25.2842 -358.773
lowerback 17.73 1.75628 -2.71699
upperback 8.66494 1.72619 -0.212278
thorax -0.733379 0.726737 1.00308
lowerneck -4.1625 0.730326 -4.56402
upperneck 28.6547 0.0908246 5.07277
head 9.68755 0.00321643 2.56623
rclavicle -6.1996e-014 2.52457e-014
rhumerus -13.5636 33.3283 -74.1322
rradius 62.305
rwrist 22.1937
rhand -23.7486 3.6367
rfingers 7.12502
rthumb 2.72018 -26.3257
lclavicle -6.1996e-014 2.52457e-014
lhumerus -7.90823 -41.8576 78.2384
lradius 62.6309
lwrist -13.9337
lhand -0.756395 31.7778
lfingers 7.12502
lthumb 24.8657 60.1807
rfemur -39.7821 -6.4311 8.53266
rtibia 67.7445
rfoot -18.0344 -6.86986
rtoes -3.5365
lfemur -38.8211 10.3176 -11.0195
ltibia 59.6367
lfoot -8.20689 -16.9508
ltoes 7.06485
508
root -0.534724 16.2715 -5.29518 354.326 -25.3409 -358.697
lowerback 17.8732 1.76181 -2.73496
upperback 8.63085 1.72555 -0.185131
thorax -0.844851 0.726723 1.03827
lowerneck -4.05057 0.71715 -4.59712
upperneck 28.5588 0.0801674 5.05262
head 9.63209 -0.00781444 2.56074
rclavicle -3.50482e-014 6.90777e-015
rhumerus -13.4847 33.9693 -74.0676
rradius 62.4327
rwrist 22.4454
rhand -23.5512 4.0944
rfingers 7.12502
rthumb 2.91079 -25.8655
lclavicle -3.50482e-014 6.90777e-015
lhumerus -7.96864 -42.4374 78.2294
lradius 62.66
lwrist -13.6744
lhand -1.21297 31.7136
lfingers 7.12502
lthumb 24.4281 60.1762
rfemur -39.5087 -6.38586 8.41894
rtibia 67.9138
rfoot -17.9199 -6.75572
rtoes -3.53357
lfemur -38.449 10.3267 -11.0074
ltibia 59.7405
lfoot -8.21138 -16.9352
ltoes 6.8856
509
root -0.526039 16.2559 -5.31725 353.938 -25.3475 -358.625
lowerback 17.9425 1.75712 -2.73892
upperback 8.58676 1.71735 -0.152159
thorax -0.928465 0.723444 1.07462
lowerneck -4.0587 0.679606 -4.61042
upperneck 28.5853 0.0387045 5.01235
head 9.64606 -0.032615 2.54587
rclavicle -1.50704e-014 -6.60959e-015
rhumerus -13.4395 34.6262 -73.9528
rradius 62.6664
rwrist 22.6782
rhand -23.5408 4.40475
rfingers 7.12502
rthumb 2.92086 -25.555
lclavicle -1.50704e-014 -6.60959e-015
lhumerus -8.0328 -42.8782 78.2844
lradius 62.6472
lwrist -13.6906
lhand -1.47384 31.3852
lfingers 7.12502
lthumb 24.178 59.8813
rfemur -39.3507 -6.38303 8.30886
rtibia 68.0858
rfoot -17.7551 -6.71418
rtoes -3.80416
lfemur -38.2103 10.3054 -11.0239
ltibia 59.8688
lfoot -8.2589 -16.901
ltoes 6.47916
510
root -0.517125 16.2406 -5.33561 353.631 -25.3162 -358.451
lowerback 17.7344 1.73289 -2.81176
upperback 8.61413 1.68299 -0.158974
thorax -0.792056 0.703067 1.1197
lowerneck -4.18807 0.635271 -4.70345
upperneck 28.5807 -0.0189495 5.06918
head 9.6719 -0.0613566 2.57806
rclavicle 2.86685e-015 -6.33626e-016
rhumerus -13.1641 35.3285 -73.71
rradius 62.8955
rwrist 22.8867
rhand -23.4745 4.57849
rfingers 7.12502
rthumb 2.98484 -25.3804
lclavicle 2.86685e-015 -6.33626e-016
lhumerus -7.9713 -43.1217 78.2654
lradius 62.6674
lwrist -13.7809
lhand -1.29505 31.2674
lfingers 7.12502
lthumb 24.3494 59.7406
rfemur -39.3178 -6.48663 8.08763
rtibia 68.2749
rfoot -17.5693 -6.56744
rtoes -3.98956
lfemur -38.1261 10.2437 -11.1836
ltibia 60.0295
lfoot -8.24946 -16.8848
ltoes 6.49689
511
root -0.509559 16.2216 -5.35972 353.397 -25.3184 -358.499
lowerback 17.6253 1.70075 -2.7236
upperback 8.61913 1.66034 -0.119365
thorax -0.728811 0.693001 1.11812
lowerneck -4.11911 0.623088 -4.84605
upperneck 28.373 -0.0523177 5.22741
head 9.58386 -0.0742708 2.65042
rclavicle -6.51004e-014 3.6303e-014
rhumerus -12.8066 36.163 -73.4773
rradius 62.9606
rwrist 22.9191
rhand -23.6175 4.6287
rfingers 7.12502
rthumb 2.8468 -25.332
lclavicle -6.51004e-014 3.6303e-014
lhumerus -8.00475 -43.4043 78.2233
lradius 62.7991
lwrist -13.8977
lhand -0.855521 31.1968
lfingers 7.12502
lthumb 24.7707 59.6128
rfemur -39.2885 -6.49832 8.11561
rtibia 68.4783
rfoot -17.4078 -6.47877
rtoes -3.837
lfemur -38.0728 10.23 -11.096
ltibia 60.2251
lfoot -8.15163 -16.8814
ltoes 6.75409
512
root -0.50218 16.199 -5.38779 353.169 -25.3588 -358.76
lowerback 17.7165 1.66682 -2.46584
upperback 8.5704 1.65534 -0.0182022
thorax -0.82507 0.697377 1.07749
lowerneck -3.99734 0.656277 -4.84216
upperneck 28.238 -0.00775689 5.23023
head 9.50915 -0.0532913 2.65047
rclavicle 4.9106e-015 8.7341e-015
rhumerus -12.4843 37.1119 -73.2682
rradius 62.8427
rwrist 22.8406
rhand -23.7493 4.67305
rfingers 7.12502
rthumb 2.71948 -25.2894
lclavicle 4.9106e-015 8.7341e-015
lhumerus -8.12113 -43.8487 78.2
lradius 62.9399
lwrist -13.9667
lhand -0.547097 31.3157
lfingers 7.12502
lthumb 25.0662 59.6907
rfemur -39.1846 -6.39626 8.37467
rtibia 68.6904
rfoot -17.3352 -6.51206
rtoes -3.48151
lfemur -37.9491 10.2139 -10.7472
ltibia 60.4275
lfoot -7.99685 -16.9338
ltoes 7.41895
